# xmcd
# 
# Track frame offsets:
#     182
#     11070
#     21380
#     30530
#     42485
#     53467
#     68750
#     82545
#     93845
#     108295
#     120420
#     133170
#     145942
#     160110
#     170755
#     179692
#     193695
#     205395
#     220457
#     236595
# 
# Disc length: 3320
# 
# Revision: 4
# Processed by: cddbd v1.5.2PL0 Copyright (c) Steve Scherf et al.
# Submitted via: BonkEnc v1.0.8
# 
DISCID=150cf614
DTITLE=Stompin' Tom Conners - A Proud Canadian
DYEAR=1990
DGENRE=Country
TTITLE0=Bud The Spud
TTITLE1=Snowmobile Song
TTITLE2=Roll On Saskatchewan
TTITLE3=Manitoba
TTITLE4=Sudbury Saturday Night
TTITLE5=Tillsonburg
TTITLE6=Roving All Over The Land
TTITLE7=New Brunswick And Mary
TTITLE8=Big Joe Mufferaw
TTITLE9=Gumboot Cloggeroo
TTITLE10=The Old Atlantic Shore
TTITLE11=Blue Nose
TTITLE12=Fleur De Lis
TTITLE13=The Moon-man Newfie
TTITLE14=The Ketchup Song
TTITLE15=Lady, K.D. Lang
TTITLE16=The Bridge Came Tumblin' Down
TTITLE17=Marten Hartwell Story
TTITLE18=I Am The Wind
TTITLE19=The Singer (The Voice Of The People)
EXTD=
EXTT0=Stompin' Tom
EXTT1=Stompin' Tom
EXTT2=Stompin' Tom
EXTT3=Stompin' Tom
EXTT4=Stompin' Tom
EXTT5=Stompin' Tom
EXTT6=Stompin' Tom
EXTT7=Stompin' Tom
EXTT8=Stompin' Tom
EXTT9=Stompin' Tom
EXTT10=Stompin' Tom
EXTT11=Stompin' Tom
EXTT12=Stompin' Tom
EXTT13=Stompin' Tom
EXTT14=Stompin' Tom
EXTT15=Stompin' Tom
EXTT16=Stompin' Tom
EXTT17=Stompin' Tom
EXTT18=Stompin' Tom
EXTT19=Stompin' Tom
PLAYORDER=
